<svg xmlns="http://www.w3.org/2000/svg" version="1.1" xmlns:xlink="http://www.w3.org/1999/xlink" width="32.95" height="36.2"><svg xmlns="http://www.w3.org/2000/svg" viewBox="0 0 32.95 36.2">
    <path d="M11.01,26.22c-.27.28-.1,1.24.69,1.04,6.47.95,13.08,1.95,19.24,4.18.57.21,2.01.52,2.01,1.22l-26.22-3.93c-.41-.57-.33-1.43.03-2.03.41-.67,7.02-4.53,8.39-5.55,3.1-2.32,11.55-8.91,12.58-12.3,1.25-4.1-1.21-6.04-5.05-6.44-2.3-.24-4.01.85-6.16-.03C10.76,13.14,6.09,24.44,2.49,36.1c-1.15.23-2.37.12-2.49-1.22,1.57-4.87,2.96-9.84,4.78-14.62,1.24-3.26,6.44-16.17,8.21-18.14s2.46-.31,3.26-.37c.39-.03.92-1.01,1.62-1.23,5.92-1.9,14,1.48,12.98,8.43-.87,5.95-11.97,12.84-16.89,15.97-.77.49-2.84,1.17-2.95,1.29Z"></path>
</svg><style>@media (prefers-color-scheme: light) { :root { filter: none; } }
@media (prefers-color-scheme: dark) { :root { filter: contrast(0.3846153846153846) brightness(4.5); } }
</style></svg>