<svg class="fill-current" xmlns="http://www.w3.org/2000/svg" viewBox="0 0 104 38">
    <g fill-rule="nonzero">
        <path
            d="M49.703 9.685C35.02.779 15.276-3.842.006 4.02L25.642 17.47C16.741 17.54 7.764 18.859 0 21.01l31.383 7.917 18.32-7.917c-4.37-1.545-9.17-2.537-14.151-3.07l14.151-8.256zM.007 38l31.507-1.48 18.19-4.178C34.82 29.167 8.634 35.593.007 38z">
        </path>
        <g>
            <path
                d="M64.936 14.16h-5.133V9.681h15.826v4.477h-5.133v18.182h-5.56zM77.808 9.683h9.587c3.885 0 6.782 1.853 6.782 5.74 0 2.856-1.346 4.45-3.674 5.297v.065c2.775.615 4.207 2.24 4.207 4.994 0 5.425-4.39 6.558-8.123 6.558H77.81V9.683h-.002zm5.55 18.372h1.649c2.034 0 4.15-.33 4.15-2.63 0-2.466-2.181-2.692-4.092-2.692H83.36l-.001 5.322zm0-9.414h1.562c1.818 0 3.697-.486 3.697-2.401 0-2.08-1.79-2.272-3.64-2.272H83.36v4.673zM98.446 9.683H104V32.34h-5.554z">
            </path>
        </g>
    </g>
</svg>